<svg width="246" height="51" viewBox="0 0 246 51" fill="none" xmlns="http://www.w3.org/2000/svg">
<path d="M10 40.48C7.38667 40.48 5.2 39.7467 3.44 38.28C1.68 36.7867 0.800003 34.5867 0.800003 31.68H7.08C7.08 32.6133 7.34667 33.3333 7.88 33.84C8.44 34.32 9.14667 34.56 10 34.56C10.8267 34.56 11.52 34.32 12.08 33.84C12.64 33.36 12.92 32.6933 12.92 31.84V11.6H19.28V32.24C19.28 34.96 18.4 37.0133 16.64 38.4C14.88 39.7867 12.6667 40.48 10 40.48ZM39.3503 37.696C37.5023 39.496 35.2703 40.396 32.6543 40.396C30.0383 40.396 27.8063 39.496 25.9583 37.696C24.1103 35.872 23.1863 33.64 23.1863 31C23.1863 28.36 24.1103 26.14 25.9583 24.34C27.8063 22.516 30.0383 21.604 32.6543 21.604C35.2703 21.604 37.5023 22.516 39.3503 24.34C41.1983 26.14 42.1223 28.36 42.1223 31C42.1223 33.64 41.1983 35.872 39.3503 37.696ZM29.7743 34.132C30.5423 34.924 31.5023 35.32 32.6543 35.32C33.8063 35.32 34.7543 34.924 35.4983 34.132C36.2663 33.34 36.6503 32.296 36.6503 31C36.6503 29.704 36.2663 28.66 35.4983 27.868C34.7543 27.076 33.8063 26.68 32.6543 26.68C31.5023 26.68 30.5423 27.076 29.7743 27.868C29.0303 28.66 28.6583 29.704 28.6583 31C28.6583 32.296 29.0303 33.34 29.7743 34.132ZM55.7984 40.396C54.6944 40.396 53.6984 40.18 52.8104 39.748C51.9224 39.292 51.2864 38.776 50.9024 38.2V40H45.4664V13H50.9024V23.8C51.2864 23.224 51.9224 22.72 52.8104 22.288C53.6984 21.832 54.6944 21.604 55.7984 21.604C58.1264 21.604 60.0944 22.528 61.7024 24.376C63.3344 26.224 64.1504 28.432 64.1504 31C64.1504 33.568 63.3344 35.776 61.7024 37.624C60.0944 39.472 58.1264 40.396 55.7984 40.396ZM51.5864 34.204C52.3544 35.044 53.3504 35.464 54.5744 35.464C55.7984 35.464 56.7824 35.044 57.5264 34.204C58.2944 33.364 58.6784 32.296 58.6784 31C58.6784 29.704 58.2944 28.636 57.5264 27.796C56.7824 26.956 55.7984 26.536 54.5744 26.536C53.3504 26.536 52.3544 26.956 51.5864 27.796C50.8424 28.636 50.4704 29.704 50.4704 31C50.4704 32.296 50.8424 33.364 51.5864 34.204ZM80.0365 40.432C76.1725 40.432 72.9685 39.16 70.4245 36.616C67.8805 34.072 66.6085 30.94 66.6085 27.22C66.6085 23.5 67.8805 20.368 70.4245 17.824C72.9685 15.28 76.1725 14.008 80.0365 14.008C82.8925 14.008 85.4965 14.86 87.8485 16.564C90.2245 18.244 91.7605 20.464 92.4565 23.224H86.2285C85.6765 22.048 84.8365 21.148 83.7085 20.524C82.5805 19.876 81.3565 19.552 80.0365 19.552C77.7325 19.552 75.8725 20.284 74.4565 21.748C73.0645 23.212 72.3685 25.036 72.3685 27.22C72.3685 29.404 73.0645 31.228 74.4565 32.692C75.8725 34.156 77.7325 34.888 80.0365 34.888C81.3565 34.888 82.5805 34.576 83.7085 33.952C84.8365 33.304 85.6765 32.392 86.2285 31.216H92.4565C91.7605 33.976 90.2245 36.208 87.8485 37.912C85.4965 39.592 82.8925 40.432 80.0365 40.432ZM95.564 40V22H101V24.7C101.288 23.884 101.828 23.2 102.62 22.648C103.412 22.072 104.3 21.784 105.284 21.784C105.908 21.784 106.496 21.856 107.048 22V27.508C106.208 27.22 105.404 27.076 104.636 27.076C103.484 27.076 102.584 27.484 101.936 28.3C101.312 29.092 101 30.148 101 31.468V40H95.564ZM116.723 40.396C114.395 40.396 112.415 39.472 110.783 37.624C109.175 35.776 108.371 33.568 108.371 31C108.371 28.432 109.175 26.224 110.783 24.376C112.415 22.528 114.395 21.604 116.723 21.604C118.787 21.604 120.419 22.336 121.619 23.8V22H127.055V40H121.619V38.2C120.419 39.664 118.787 40.396 116.723 40.396ZM114.959 34.204C115.727 35.044 116.723 35.464 117.947 35.464C119.171 35.464 120.155 35.044 120.899 34.204C121.667 33.364 122.051 32.296 122.051 31C122.051 29.704 121.667 28.636 120.899 27.796C120.155 26.956 119.171 26.536 117.947 26.536C116.723 26.536 115.727 26.956 114.959 27.796C114.215 28.636 113.843 29.704 113.843 31C113.843 32.296 114.215 33.364 114.959 34.204ZM133.545 40V26.716H129.945V22H133.545V19.588C133.545 17.38 134.217 15.7 135.561 14.548C136.929 13.372 138.669 12.784 140.781 12.784C142.077 12.784 143.157 12.916 144.021 13.18V17.968C143.589 17.776 142.941 17.68 142.077 17.68C140.973 17.68 140.181 17.92 139.701 18.4C139.221 18.856 138.981 19.624 138.981 20.704V22H143.229V26.716H138.981V40H133.545ZM154.929 40.216C152.817 40.216 151.077 39.64 149.709 38.488C148.365 37.312 147.693 35.62 147.693 33.412V26.716H144.921V22H147.693V16.996H153.129V22H158.169V26.716H153.129V32.296C153.129 33.376 153.369 34.156 153.849 34.636C154.329 35.092 155.109 35.32 156.189 35.32C157.077 35.32 157.737 35.224 158.169 35.032V39.856C157.377 40.096 156.297 40.216 154.929 40.216ZM169.801 40.396C167.017 40.396 164.725 39.508 162.925 37.732C161.149 35.956 160.261 33.7 160.261 30.964C160.261 28.276 161.161 26.044 162.961 24.268C164.785 22.492 167.065 21.604 169.801 21.604C171.121 21.604 172.357 21.832 173.509 22.288C174.685 22.744 175.717 23.404 176.605 24.268C177.517 25.132 178.225 26.248 178.729 27.616C179.233 28.984 179.461 30.532 179.413 32.26H165.553C165.649 33.244 166.081 34.072 166.849 34.744C167.617 35.392 168.697 35.716 170.089 35.716C170.881 35.716 171.601 35.56 172.249 35.248C172.897 34.912 173.329 34.504 173.545 34.024H179.233C178.657 35.92 177.505 37.456 175.777 38.632C174.049 39.808 172.057 40.396 169.801 40.396ZM169.657 25.924C168.625 25.924 167.761 26.188 167.065 26.716C166.393 27.244 165.937 27.94 165.697 28.804H173.401C173.137 27.82 172.645 27.1 171.925 26.644C171.229 26.164 170.473 25.924 169.657 25.924ZM182.787 40V22H188.223V24.7C188.511 23.884 189.051 23.2 189.843 22.648C190.635 22.072 191.523 21.784 192.507 21.784C193.131 21.784 193.719 21.856 194.271 22V27.508C193.431 27.22 192.627 27.076 191.859 27.076C190.707 27.076 189.807 27.484 189.159 28.3C188.535 29.092 188.223 30.148 188.223 31.468V40H182.787ZM204.262 40.396C201.862 40.396 199.882 39.808 198.322 38.632C196.786 37.432 195.97 35.932 195.874 34.132H201.598C201.646 34.828 201.934 35.368 202.462 35.752C202.99 36.112 203.65 36.292 204.442 36.292C205.786 36.292 206.458 35.908 206.458 35.14C206.458 34.756 206.302 34.468 205.99 34.276C205.702 34.06 205.174 33.844 204.406 33.628L200.77 32.692C197.746 31.9 196.234 30.016 196.234 27.04C196.234 25.432 196.906 24.124 198.25 23.116C199.594 22.108 201.43 21.604 203.758 21.604C205.822 21.604 207.538 22.12 208.906 23.152C210.298 24.16 211.066 25.588 211.21 27.436H205.738C205.522 26.332 204.826 25.78 203.65 25.78C202.426 25.78 201.814 26.164 201.814 26.932C201.814 27.604 202.426 28.072 203.65 28.336L206.926 29.2C208.726 29.68 210.022 30.376 210.814 31.288C211.606 32.2 212.002 33.388 212.002 34.852C212.002 36.508 211.282 37.852 209.842 38.884C208.402 39.892 206.542 40.396 204.262 40.396Z" fill="white"/>
<path d="M226 26C228.761 26 231 23.7614 231 21C231 18.2386 228.761 16 226 16C223.239 16 221 18.2386 221 21C221 23.7614 223.239 26 226 26Z" fill="white"/>
<path d="M240 41C242.761 41 245 38.7614 245 36C245 33.2386 242.761 31 240 31C237.239 31 235 33.2386 235 36C235 38.7614 237.239 41 240 41Z" fill="white"/>
<path d="M240 26C242.761 26 245 23.7614 245 21C245 18.2386 242.761 16 240 16C237.239 16 235 18.2386 235 21C235 23.7614 237.239 26 240 26Z" fill="white"/>
<path d="M226 41C228.761 41 231 38.7614 231 36C231 33.2386 228.761 31 226 31C223.239 31 221 33.2386 221 36C221 38.7614 223.239 41 226 41Z" fill="white"/>
</svg>
